<svg width="30" height="30" viewBox="0 0 30 30" fill="none" xmlns="http://www.w3.org/2000/svg">
<g id="ic/30x30/Sharing">
<g id="Group 431">
<path id="Vector (Stroke)" fill-rule="evenodd" clip-rule="evenodd" d="M7 11C6.73473 11 6.4803 11.1054 6.2928 11.2929C6.10535 11.4803 6 11.7347 6 12V22C6 22.2653 6.10535 22.5197 6.2928 22.7071C6.4803 22.8946 6.73473 23 7 23H23C23.2651 23 23.5194 22.8947 23.707 22.7071C23.8946 22.5194 24 22.265 24 22V12C24 11.735 23.8946 11.4806 23.707 11.2929C23.5194 11.1053 23.2651 11 23 11H21V9H23C23.7957 9 24.5586 9.31612 25.1212 9.87868C25.6836 10.4412 26 11.2042 26 12V22C26 22.7958 25.6836 23.5588 25.1212 24.1213C24.5586 24.6839 23.7957 25 23 25H7C6.2044 25 5.44123 24.684 4.87859 24.1213C4.31589 23.5586 4 22.7955 4 22V12C4 11.2045 4.31589 10.4414 4.87859 9.87868C5.44123 9.31603 6.2044 9 7 9H9V11H7Z" fill="white"/>
<path id="Vector (Stroke)_2" fill-rule="evenodd" clip-rule="evenodd" d="M14 19V4H16V19H14Z" fill="white"/>
<path id="Vector (Stroke)_3" fill-rule="evenodd" clip-rule="evenodd" d="M14.293 19.7071L9.29297 14.7071L10.7072 13.2929L15.0001 17.5858L19.293 13.2929L20.7072 14.7071L15.7072 19.7071C15.3167 20.0976 14.6835 20.0976 14.293 19.7071Z" fill="white"/>
</g>
</g>
</svg>
